<?xml version="1.0" encoding="UTF-8" standalone="no"?>
<!-- Created with Inkscape (http://www.inkscape.org/) -->

<svg
   xmlns:dc="http://purl.org/dc/elements/1.1/"
   xmlns:cc="http://creativecommons.org/ns#"
   xmlns:rdf="http://www.w3.org/1999/02/22-rdf-syntax-ns#"
   xmlns:svg="http://www.w3.org/2000/svg"
   xmlns="http://www.w3.org/2000/svg"
   xmlns:sodipodi="http://sodipodi.sourceforge.net/DTD/sodipodi-0.dtd"
   xmlns:inkscape="http://www.inkscape.org/namespaces/inkscape"
   width="210mm"
   height="297mm"
   viewBox="0 0 210 297"
   version="1.1"
   id="svg13522"
   inkscape:version="0.92.3 (2405546, 2018-03-11)"
   sodipodi:docname="babyBeanstalkNIght.svg">
  <defs
     id="defs13516" />
  <sodipodi:namedview
     id="base"
     pagecolor="#ffffff"
     bordercolor="#666666"
     borderopacity="1.0"
     inkscape:pageopacity="0.0"
     inkscape:pageshadow="2"
     inkscape:zoom="1.575"
     inkscape:cx="222.56137"
     inkscape:cy="611.18553"
     inkscape:document-units="mm"
     inkscape:current-layer="layer1"
     showgrid="false"
     inkscape:snap-bbox="true"
     inkscape:bbox-nodes="true"
     inkscape:bbox-paths="true"
     inkscape:snap-page="true"
     inkscape:window-width="2256"
     inkscape:window-height="1410"
     inkscape:window-x="-11"
     inkscape:window-y="-11"
     inkscape:window-maximized="1" />
  <metadata
     id="metadata13519">
    <rdf:RDF>
      <cc:Work
         rdf:about="">
        <dc:format>image/svg+xml</dc:format>
        <dc:type
           rdf:resource="http://purl.org/dc/dcmitype/StillImage" />
        <dc:title></dc:title>
      </cc:Work>
    </rdf:RDF>
  </metadata>
  <g
     inkscape:label="Layer 1"
     inkscape:groupmode="layer"
     id="layer1">
    <path
       inkscape:connector-curvature="0"
       id="path12859"
       d="m 36.161221,263.45189 a 6.7004243,6.7004243 0 0 0 -5.210656,2.49795 6.7004243,6.7004243 0 0 0 -2.70499,-0.575 6.7004243,6.7004243 0 0 0 -6.581781,5.46148 6.7004243,6.7004243 0 0 0 -1.542249,-0.18793 6.7004243,6.7004243 0 0 0 -6.700111,6.70143 6.7004243,6.7004243 0 0 0 3.097316,5.63895 6.7004243,6.7004243 0 0 0 -0.04381,0.73318 6.7004243,6.7004243 0 0 0 6.700112,6.70143 6.7004243,6.7004243 0 0 0 3.698002,-1.11779 6.7004243,6.7004243 0 0 0 6.378574,4.67168 6.7004243,6.7004243 0 0 0 4.038854,-1.36212 6.7004243,6.7004243 0 0 0 6.086557,3.91925 6.7004243,6.7004243 0 0 0 4.465903,-1.71464 6.7004243,6.7004243 0 0 0 1.894676,0.27786 6.7004243,6.7004243 0 0 0 2.250935,-0.39614 6.7004243,6.7004243 0 0 0 3.903797,1.26181 6.7004243,6.7004243 0 0 0 4.678121,-1.90496 6.7004243,6.7004243 0 0 0 5.53864,2.94168 6.7004243,6.7004243 0 0 0 4.931507,-2.17636 6.7004243,6.7004243 0 0 0 2.523661,0.49649 6.7004243,6.7004243 0 0 0 4.954656,-2.20205 6.7004243,6.7004243 0 0 0 3.346845,0.90296 6.7004243,6.7004243 0 0 0 4.949528,-2.19566 6.7004243,6.7004243 0 0 0 0.806481,0.054 6.7004243,6.7004243 0 0 0 6.685974,-6.41589 6.7004243,6.7004243 0 0 0 4.693578,-6.38497 6.7004243,6.7004243 0 0 0 -5.206798,-6.5252 6.7004243,6.7004243 0 0 0 -6.420988,-4.80034 6.7004243,6.7004243 0 0 0 -1.849648,0.26369 6.7004243,6.7004243 0 0 0 -5.255658,-2.54681 6.7004243,6.7004243 0 0 0 -4.036291,1.35961 6.7004243,6.7004243 0 0 0 -4.216349,-1.49981 6.7004243,6.7004243 0 0 0 -3.544925,1.01874 6.7004243,6.7004243 0 0 0 -4.305109,-1.56666 6.7004243,6.7004243 0 0 0 -4.208633,1.4908 6.7004243,6.7004243 0 0 0 -5.290406,-2.59186 6.7004243,6.7004243 0 0 0 -3.811179,1.19885 6.7004243,6.7004243 0 0 0 -3.252933,-0.84513 6.7004243,6.7004243 0 0 0 -2.841366,0.64058 6.7004243,6.7004243 0 0 0 -3.494745,-0.9943 6.7004243,6.7004243 0 0 0 -2.27926,0.40521 6.7004243,6.7004243 0 0 0 -2.825909,-0.63413 z"
       style="opacity:1;fill:#6a655e;fill-opacity:1;stroke:none;stroke-width:3.03929305;stroke-linecap:round;stroke-linejoin:round;stroke-miterlimit:4;stroke-dasharray:none;stroke-opacity:1;paint-order:markers fill stroke" />
    <path
       sodipodi:nodetypes="cc"
       inkscape:connector-curvature="0"
       id="path12861"
       d="M 68.528234,274.67784 C 99.943279,164.09337 4.3177577,109.91441 46.262887,3.783078"
       style="fill:none;stroke:#4b474e;stroke-width:7.46719122;stroke-linecap:round;stroke-linejoin:miter;stroke-miterlimit:4;stroke-dasharray:none;stroke-opacity:1" />
    <path
       sodipodi:nodetypes="cc"
       inkscape:connector-curvature="0"
       id="path12863"
       d="M 42.920572,273.1037 C 78.784271,176.25735 115.22292,117.57921 63.807376,36.638594"
       style="fill:none;stroke:#4b474e;stroke-width:7.46719122;stroke-linecap:round;stroke-linejoin:miter;stroke-miterlimit:4;stroke-dasharray:none;stroke-opacity:1" />
    <path
       id="path12867"
       d="m 93.531023,203.96823 c 11.501287,-1.26482 15.238797,-8.54056 15.251007,-8.54056 0.1887,-0.36267 0.63566,-0.50359 0.99833,-0.31488 0.1829,0.0952 0.31782,0.26242 0.37222,0.46129 3.82291,12.96538 1.73659,21.9045 -2.65164,27.20779 -1.69885,2.06711 -3.87477,3.69034 -6.34035,4.72984 -2.271286,0.96326 -4.736652,1.38113 -7.198468,1.22008 -4.713574,-0.32942 -9.016391,-2.84686 -11.013256,-7.35708 -0.511623,-1.15298 -0.842263,-2.37794 -0.98014,-3.63178 -0.278879,-2.51306 0.211787,-5.05163 1.40717,-7.27981 1.28332,-2.37763 3.326637,-4.25635 5.803502,-5.33581 1.382051,-0.60893 2.850014,-0.99986 4.351625,-1.15908 z"
       style="fill:#86818a;fill-opacity:1;stroke:#006200;stroke-width:0;stroke-miterlimit:4;stroke-dasharray:none;stroke-opacity:1"
       inkscape:connector-curvature="0" />
    <path
       id="path12869"
       d="m 108.70069,195.70016 c 0.009,-0.40864 0.34944,-0.73185 0.75808,-0.72179 0.40862,0.009 0.73184,0.34946 0.72177,0.75808 -7e-4,0.0302 -0.003,0.06 -0.008,0.0899 0,0.0366 -0.64664,8.54057 -8.94726,17.14621 l -0.0773,0.0814 c -1.950104,2.00021 -4.089919,3.80623 -6.389149,5.39274 l 4.98606,0.92727 c 0.397439,0.0958 0.641869,0.49575 0.545979,0.89309 -0.0869,0.35972 -0.425901,0.60008 -0.794069,0.56287 l -6.507087,-1.22008 c -5.933666,3.75785 -15.991194,7.22693 -16.86965,15.41368 -0.05435,0.40516 -0.42692,0.68955 -0.832099,0.63515 -0.385637,-0.0517 -0.66535,-0.39327 -0.640121,-0.78156 1.049258,-9.81351 11.021377,-12.33909 17.74809,-16.6297 l 0.09363,-0.061 c 2.684474,-1.69896 5.171204,-3.69187 7.414023,-5.94179 l -0.589711,-5.83605 c -0.05435,-0.40518 0.229978,-0.7777 0.635157,-0.8321 0.405167,-0.0543 0.777707,0.22998 0.832087,0.63516 0.002,0.0168 0.005,0.0336 0.005,0.0506 l 0.44736,4.53057 c 6.91795,-7.76784 7.46293,-15.05985 7.46699,-15.09238 z"
       style="fill:#4b474e;fill-opacity:1;stroke:#006200;stroke-width:0;stroke-miterlimit:4;stroke-dasharray:none;stroke-opacity:1"
       inkscape:connector-curvature="0" />
    <path
       id="path12867-9"
       d="M 18.211678,91.127454 C 6.7466415,92.687006 1.3576294,86.533638 1.3457873,86.536595 1.0748422,86.23045 0.6070508,86.202021 0.30090978,86.472982 0.14652644,86.609656 0.0561397,86.804585 0.05154668,87.010715 -0.51603238,100.51603 3.6740146,108.68329 9.2164346,112.76532 c 2.1490784,1.5939 4.6534554,2.64155 7.2974394,3.05269 2.436995,0.38423 4.930148,0.19231 7.279589,-0.56042 4.493309,-1.46166 8.057957,-4.94664 8.902527,-9.80629 0.217017,-1.2426 0.241006,-2.51117 0.07098,-3.76105 -0.338327,-2.505748 -1.429451,-4.849791 -3.129087,-6.721944 -1.821165,-1.995846 -4.258797,-3.323504 -6.923407,-3.770678 -1.488408,-0.255918 -3.00735,-0.279523 -4.502797,-0.07017 z"
       style="fill:#86818a;fill-opacity:1;stroke:#006200;stroke-width:0;stroke-miterlimit:4;stroke-dasharray:none;stroke-opacity:1"
       inkscape:connector-curvature="0" />
    <path
       id="path12869-7"
       d="M 1.4907256,86.781254 C 1.3825717,86.387079 0.97437311,86.155883 0.58035017,86.264647 c -0.39415995,0.10815 -0.62536668,0.516367 -0.51659174,0.910371 0.0079936,0.02909 0.01758766,0.05746 0.02939158,0.08528 0.0088683,0.03551 2.69669249,8.12941 12.83506099,14.467452 l 0.0947,0.0602 c 2.37663,1.46811 4.890271,2.70185 7.505393,3.68401 l -4.612821,2.10772 c -0.362375,0.18927 -0.502621,0.63651 -0.313318,0.99877 0.171438,0.32795 0.558603,0.47901 0.906785,0.3537 l 6.01758,-2.76034 c 6.66736,2.20818 17.26574,3.13703 20.101611,10.86699 0.150902,0.37992 0.581274,0.56557 0.961199,0.41462 0.361624,-0.14358 0.550237,-0.54276 0.43168,-0.91337 -3.395738,-9.26687 -13.682648,-9.30102 -21.248511,-11.83395 l -0.105603,-0.0365 c -3.016131,-0.99791 -5.911632,-2.32891 -8.632762,-3.96837 L 13.19225,94.896186 c -0.04544,-0.406275 -0.411557,-0.698804 -0.817843,-0.653411 -0.40626,0.04543 -0.698805,0.411556 -0.653396,0.817839 0.0025,0.01669 0.0036,0.03376 0.0077,0.05022 l 0.663697,4.50396 C 3.7984815,93.754651 1.5029441,86.811961 1.4911142,86.781383 Z"
       style="fill:#4b474e;fill-opacity:1;stroke:#006200;stroke-width:0;stroke-miterlimit:4;stroke-dasharray:none;stroke-opacity:1"
       inkscape:connector-curvature="0" />
  </g>
</svg>
