<?xml version="1.0" encoding="UTF-8" standalone="no"?>
<svg
   xmlns:dc="http://purl.org/dc/elements/1.1/"
   xmlns:cc="http://creativecommons.org/ns#"
   xmlns:rdf="http://www.w3.org/1999/02/22-rdf-syntax-ns#"
   xmlns:svg="http://www.w3.org/2000/svg"
   xmlns="http://www.w3.org/2000/svg"
   xmlns:sodipodi="http://sodipodi.sourceforge.net/DTD/sodipodi-0.dtd"
   xmlns:inkscape="http://www.inkscape.org/namespaces/inkscape"
   height="512pt"
   viewBox="0 -45 512.00082 512"
   width="512pt"
   version="1.1"
   id="svg141"
   sodipodi:docname="cabin.svg"
   inkscape:version="0.92.3 (2405546, 2018-03-11)">
  <metadata
     id="metadata147">
    <rdf:RDF>
      <cc:Work
         rdf:about="">
        <dc:format>image/svg+xml</dc:format>
        <dc:type
           rdf:resource="http://purl.org/dc/dcmitype/StillImage" />
      </cc:Work>
    </rdf:RDF>
  </metadata>
  <defs
     id="defs145" />
  <sodipodi:namedview
     pagecolor="#ffffff"
     bordercolor="#666666"
     borderopacity="1"
     objecttolerance="10"
     gridtolerance="10"
     guidetolerance="10"
     inkscape:pageopacity="0"
     inkscape:pageshadow="2"
     inkscape:window-width="3008"
     inkscape:window-height="1880"
     id="namedview143"
     showgrid="false"
     inkscape:zoom="1.8634363"
     inkscape:cx="375.23229"
     inkscape:cy="345.58118"
     inkscape:window-x="-13"
     inkscape:window-y="-13"
     inkscape:window-maximized="1"
     inkscape:current-layer="svg141" />
  <path
     d="m231.800781 40.390625c2.105469-18.105469-9.898437-35.269531-27.648437-39.417969-15.183594-3.546875-29.980469 2.886719-38.125 14.636719-4.597656 6.636719-12.035156 10.738281-20.09375 11.183594-10.832032.59375-21.550782 4.746093-30.273438 12.589843-20.101562 18.070313-21.777344 49.597657-3.730468 69.722657 18.011718 20.082031 48.875 22.015625 69.257812 4.21875 8.308594-7.25 13.601562-16.667969 15.78125-26.675781 1.695312-7.808594 7.015625-14.21875 14.246094-17.625 10.925781-5.140626 19.074218-15.640626 20.585937-28.632813zm0 0"
     fill="#ccf8ff"
     id="path89" />
  <path
     d="m122.132812 34.453125c-2.253906 1.4375-4.414062 3.078125-6.472656 4.929687-20.101562 18.070313-21.777344 49.597657-3.730468 69.722657 18.011718 20.082031 48.875 22.015625 69.257812 4.21875 3.199219-2.789063 5.949219-5.898438 8.246094-9.242188-10.515625-49.042969-43-64.84375-67.300782-69.628906zm0 0"
     fill="#abebf4"
     id="path91" />
  <path
     d="m138.746094 155.878906h-59.285156v-68.15625c0-13.789062 11.179687-24.964844 24.96875-24.964844h9.347656c13.789062 0 24.96875 11.175782 24.96875 24.964844zm0 0"
     fill="#7c5a51"
     id="path93" />
  <path
     d="m454.472656 370.511719h-278.730468c-15.621094 0-28.402344-12.78125-28.402344-28.402344s12.78125-28.402344 28.402344-28.402344h278.730468c15.621094 0 28.402344 12.78125 28.402344 28.402344s-12.78125 28.402344-28.402344 28.402344zm0 0"
     fill="#c68d6d"
     id="path95" />
  <path
     d="m429.824219 342.109375c0-15.621094-12.78125-28.402344-28.402344-28.402344h-225.679687c-15.621094 0-28.402344 12.78125-28.402344 28.402344s12.78125 28.402344 28.402344 28.402344h225.679687c15.621094 0 28.402344-12.78125 28.402344-28.402344zm0 0"
     fill="#b2785b"
     id="path97" />
  <path
     d="m454.472656 268.945312h-278.730468c-15.621094 0-28.402344-12.78125-28.402344-28.402343 0-15.621094 12.78125-28.402344 28.402344-28.402344h278.730468c15.621094 0 28.402344 12.78125 28.402344 28.402344 0 15.621093-12.78125 28.402343-28.402344 28.402343zm0 0"
     fill="#c68d6d"
     id="path99" />
  <path
     d="m429.824219 240.542969c0-15.621094-12.78125-28.402344-28.402344-28.402344h-225.679687c-15.621094 0-28.402344 12.78125-28.402344 28.402344 0 15.621093 12.78125 28.402343 28.402344 28.402343h225.679687c15.621094 0 28.402344-12.78125 28.402344-28.402343zm0 0"
     fill="#b2785b"
     id="path101" />
  <path
     d="m454.472656 421.296875h-278.730468c-15.621094 0-28.402344-12.78125-28.402344-28.40625 0-15.621094 12.78125-28.402344 28.402344-28.402344h278.730468c15.621094 0 28.402344 12.78125 28.402344 28.402344 0 15.625-12.78125 28.40625-28.402344 28.40625zm0 0"
     id="path103"
     fill="#dd9f80" />
  <path
     d="m429.824219 392.890625c0-15.621094-12.78125-28.402344-28.402344-28.402344h-225.679687c-15.621094 0-28.402344 12.78125-28.402344 28.402344 0 15.625 12.78125 28.40625 28.402344 28.40625h225.679687c15.621094 0 28.402344-12.78125 28.402344-28.40625zm0 0"
     fill="#c68d6d"
     id="path105" />
  <path
     d="m454.472656 319.730469h-278.730468c-15.621094 0-28.402344-12.78125-28.402344-28.402344s12.78125-28.40625 28.402344-28.40625h278.730468c15.621094 0 28.402344 12.785156 28.402344 28.40625s-12.78125 28.402344-28.402344 28.402344zm0 0"
     fill="#dd9f80"
     id="path107" />
  <path
     d="m429.824219 291.328125c0-15.621094-12.78125-28.40625-28.402344-28.40625h-225.679687c-15.621094 0-28.402344 12.785156-28.402344 28.40625s12.78125 28.402344 28.402344 28.402344h225.679687c15.621094 0 28.402344-12.78125 28.402344-28.402344zm0 0"
     fill="#c68d6d"
     id="path109" />
  <path
     d="m500.699219 185.734375-172.847657-108.03125c-3.898437-2.4375-8.320312-3.652344-12.746093-3.652344h-118.210938l172.824219 156.117188h118.214844c8.011718 0 15.847656-4.007813 20.410156-11.304688 7.035156-11.257812 3.613281-26.09375-7.644531-33.128906zm0 0"
     fill="#7c5a51"
     id="path111" />
  <path
     d="m278.675781 74.046875h-81.78125l172.824219 156.121094h80.980469c3.472656-5.675781 5.082031-11.375 5.539062-16.734375 1.230469-14.304688-5.9375-28.039063-17.980469-35.847656zm0 0"
     fill="#6d4b44"
     id="path113" />
  <g
     fill="#dd9f80"
     id="g121">
    <path
       d="m131.074219 116.167969h130.984375v51.003906h-130.984375zm0 0"
       id="path115" />
    <path
       d="m336.257812 370.511719h-278.730468c-15.621094 0-28.402344-12.78125-28.402344-28.402344s12.78125-28.402344 28.402344-28.402344h278.730468c15.621094 0 28.402344 12.78125 28.402344 28.402344s-12.78125 28.402344-28.402344 28.402344zm0 0"
       id="path117" />
    <path
       d="m336.257812 268.945312h-278.730468c-15.621094 0-28.402344-12.78125-28.402344-28.402343 0-15.621094 12.78125-28.402344 28.402344-28.402344h278.730468c15.621094 0 28.402344 12.78125 28.402344 28.402344 0 15.621093-12.78125 28.402343-28.402344 28.402343zm0 0"
       id="path119" />
  </g>
  <path
     d="m336.257812 421.296875h-278.730468c-15.621094 0-28.402344-12.78125-28.402344-28.40625 0-15.621094 12.78125-28.402344 28.402344-28.402344h278.730468c15.621094 0 28.402344 12.78125 28.402344 28.402344 0 15.625-12.78125 28.40625-28.402344 28.40625zm0 0"
     fill="#eab9a4"
     id="path123" />
  <path
     d="m336.257812 319.730469h-278.730468c-15.621094 0-28.402344-12.78125-28.402344-28.402344s12.78125-28.40625 28.402344-28.40625h278.730468c15.621094 0 28.402344 12.785156 28.402344 28.40625s-12.78125 28.402344-28.402344 28.402344zm0 0"
     fill="#eab9a4"
     id="path125" />
  <path
     d="m352.253906 218.164062h-310.71875l31.214844-56.804687h255.175781zm0 0"
     id="path127"
     fill="#eab9a4" />
  <path
     d="m369.71875 230.167969c-4.355469 0-8.757812-1.179688-12.722656-3.660157l-160.101563-100.0625-160.105469 100.0625c-11.261718 7.035157-26.09375 3.613282-33.132812-7.644531-7.035156-11.261719-3.6132812-26.09375 7.644531-33.128906l172.847657-108.03125c7.796874-4.871094 17.6875-4.871094 25.488281 0l172.84375 108.03125c11.261719 7.035156 14.683593 21.871094 7.648437 33.128906-4.5625 7.296875-12.398437 11.304688-20.410156 11.304688zm0 0"
     fill="#967063"
     id="path129" />
  <path
     d="m300.636719 22.003906c0 10.652344-8.636719 19.289063-19.289063 19.289063s-19.289062-8.636719-19.289062-19.289063c0-10.65625 8.636718-19.292968 19.289062-19.292968s19.289063 8.636718 19.289063 19.292968zm0 0"
     fill="#ccf8ff"
     id="path131" />
  <path
     d="m240.957031 421.296875h-88.125v-106.589844c0-12.914062 10.464844-23.378906 23.378907-23.378906h41.367187c12.910156 0 23.378906 10.464844 23.378906 23.378906zm0 0"
     fill="#b2785b"
     id="path133" />
  <path
     d="m114.769531 319.730469h-34.332031c-6.769531 0-12.257812-5.488281-12.257812-12.257813v-32.292968c0-6.769532 5.488281-12.257813 12.257812-12.257813h34.332031c6.769531 0 12.253907 5.488281 12.253907 12.257813v32.292968c.003906 6.769532-5.484376 12.257813-12.253907 12.257813zm0 0"
     fill="#898890"
     id="path135" />
  <path
     d="m313.351562 319.730469h-34.335937c-6.769531 0-12.253906-5.488281-12.253906-12.257813v-32.292968c0-6.769532 5.484375-12.257813 12.253906-12.257813h34.335937c6.765626 0 12.253907 5.488281 12.253907 12.257813v32.292968c0 6.769532-5.488281 12.257813-12.253907 12.257813zm0 0"
     fill="#898890"
     id="path137" />
  <path
     style="fill:#000000;fill-opacity:0.21691176;stroke:#000000;stroke-width:0.75000119px;stroke-linecap:butt;stroke-linejoin:miter;stroke-opacity:0"
     d="m 51.547364,420.84897 c 369.505266,49.12128 414.517566,9.83351 409.935166,-0.28596 z"
     id="path151"
     inkscape:connector-curvature="0"
     sodipodi:nodetypes="ccc" />
</svg>
