<?xml version="1.0" encoding="UTF-8" standalone="no"?>
<!-- Created with Inkscape (http://www.inkscape.org/) -->

<svg
   xmlns:dc="http://purl.org/dc/elements/1.1/"
   xmlns:cc="http://creativecommons.org/ns#"
   xmlns:rdf="http://www.w3.org/1999/02/22-rdf-syntax-ns#"
   xmlns:svg="http://www.w3.org/2000/svg"
   xmlns="http://www.w3.org/2000/svg"
   xmlns:sodipodi="http://sodipodi.sourceforge.net/DTD/sodipodi-0.dtd"
   xmlns:inkscape="http://www.inkscape.org/namespaces/inkscape"
   width="210mm"
   height="297mm"
   viewBox="0 0 210 297"
   version="1.1"
   id="svg8"
   inkscape:version="0.92.3 (2405546, 2018-03-11)"
   sodipodi:docname="jackAndCow.svg">
  <defs
     id="defs2">
    <inkscape:path-effect
       effect="skeletal"
       id="path-effect1283"
       is_visible="true"
       pattern="M 0,5 C 0,2.24 2.24,0 5,0 7.76,0 10,2.24 10,5 10,7.76 7.76,10 5,10 2.24,10 0,7.76 0,5 Z"
       copytype="single_stretched"
       prop_scale="0.26458333"
       scale_y_rel="false"
       spacing="0"
       normal_offset="0"
       tang_offset="0"
       prop_units="false"
       vertical_pattern="false"
       fuse_tolerance="0" />
  </defs>
  <sodipodi:namedview
     id="base"
     pagecolor="#ffffff"
     bordercolor="#666666"
     borderopacity="1.0"
     inkscape:pageopacity="0.0"
     inkscape:pageshadow="2"
     inkscape:zoom="0.47833664"
     inkscape:cx="-102.54678"
     inkscape:cy="727.88132"
     inkscape:document-units="mm"
     inkscape:current-layer="layer1"
     showgrid="false"
     inkscape:snap-bbox="true"
     inkscape:bbox-nodes="true"
     inkscape:snap-page="true"
     inkscape:window-width="2256"
     inkscape:window-height="1410"
     inkscape:window-x="-11"
     inkscape:window-y="-11"
     inkscape:window-maximized="1" />
  <metadata
     id="metadata5">
    <rdf:RDF>
      <cc:Work
         rdf:about="">
        <dc:format>image/svg+xml</dc:format>
        <dc:type
           rdf:resource="http://purl.org/dc/dcmitype/StillImage" />
        <dc:title />
      </cc:Work>
    </rdf:RDF>
  </metadata>
  <g
     inkscape:label="Layer 1"
     inkscape:groupmode="layer"
     id="layer1">
    <g
       id="g1168"
       transform="matrix(0.22245997,0,0,0.22245997,0,200.06885)">
      <g
         id="g1044">
        <path
           id="path1038"
           d="m 205.468,364.297 c -4.465,0 -8.084,-3.613 -8.084,-8.072 v -20.73 c 0,-4.459 3.62,-8.072 8.084,-8.072 4.464,0 8.084,3.613 8.084,8.072 v 20.73 c 0,4.459 -3.619,8.072 -8.084,8.072 z"
           style="fill:#ff968a"
           inkscape:connector-curvature="0" />
        <path
           id="path1040"
           d="m 154.03,364.297 c -4.465,0 -8.084,-3.613 -8.084,-8.072 v -20.73 c 0,-4.459 3.62,-8.072 8.084,-8.072 4.464,0 8.084,3.613 8.084,8.072 v 20.73 c 0,4.459 -3.62,8.072 -8.084,8.072 z"
           style="fill:#ff968a"
           inkscape:connector-curvature="0" />
        <path
           id="path1042"
           d="m 179.956,371.374 c -4.465,0 -8.084,-3.613 -8.084,-8.072 v -20.73 c 0,-4.459 3.62,-8.072 8.084,-8.072 4.464,0 8.084,3.613 8.084,8.072 v 20.73 c 0.001,4.459 -3.619,8.072 -8.084,8.072 z"
           style="fill:#ff968a"
           inkscape:connector-curvature="0" />
      </g>
      <g
         id="g1050">
        <path
           id="path1046"
           d="m 26.781,258.527 c -4.465,0 -8.084,-3.613 -8.084,-8.072 v -42.263 c 0,-22.218 18.077,-40.291 40.295,-40.291 4.465,0 8.084,3.613 8.084,8.072 0,4.459 -3.62,8.072 -8.084,8.072 -13.304,0 -24.127,10.833 -24.127,24.149 v 42.263 c 0,4.457 -3.619,8.07 -8.084,8.07 z"
           style="fill:#91aac4"
           inkscape:connector-curvature="0" />
        <path
           id="path1048"
           d="m 309.021,418.272 -2.758,14.481 c -0.325,1.724 -1.729,2.963 -3.357,2.963 h -32.492 c -2.235,0 -3.982,-2.097 -3.768,-4.52 l 1.815,-22.85 11.414,-143.801 42.931,-20.614 -29.8,158.534 c -0.086,0.457 -0.094,0.913 -0.017,1.36 0.163,1.091 0.771,2.06 1.686,2.628 l 12.674,7.81 c 1.296,0.803 1.972,2.416 1.672,4.009 z"
           style="fill:#91aac4"
           inkscape:connector-curvature="0" />
      </g>
      <path
         id="path1052"
         d="m 309.021,418.272 -2.758,14.481 c -0.325,1.724 -1.729,2.963 -3.357,2.963 h -32.492 c -2.235,0 -3.982,-2.097 -3.768,-4.52 l 1.815,-22.85 24.529,-4.52 c 0.163,1.091 0.771,2.06 1.686,2.628 l 12.674,7.81 c 1.295,0.802 1.971,2.415 1.671,4.008 z"
         style="fill:#3f5666"
         inkscape:connector-curvature="0" />
      <path
         id="path1054"
         d="m 115.2,349.517 v 50.443 c 0,0.858 0.288,1.677 0.811,2.321 0.261,0.335 0.578,0.615 0.95,0.848 l 15.121,9.347 c 0.894,0.559 1.518,1.472 1.705,2.507 l 2.972,16.336 c 0.419,2.293 -1.342,4.399 -3.661,4.399 h -36.66 c -2.058,0 -3.726,-1.668 -3.726,-3.727 V 329.455 l 11.562,-62.875 74.065,13.979 -40.629,67.096 z"
         style="fill:#91aac4"
         inkscape:connector-curvature="0" />
      <path
         id="path1056"
         d="m 133.097,435.718 h -36.66 c -2.058,0 -3.726,-1.668 -3.726,-3.727 v -25.683 l 23.3,-4.026 c 0.261,0.335 0.578,0.615 0.95,0.848 l 15.121,9.347 c 0.894,0.559 1.518,1.472 1.705,2.507 l 2.972,16.336 c 0.418,2.291 -1.342,4.398 -3.662,4.398 z"
         style="fill:#3f5666"
         inkscape:connector-curvature="0" />
      <ellipse
         id="ellipse1058"
         ry="48.689999"
         rx="54.417999"
         cy="297.168"
         cx="179.952"
         style="fill:#e8c1b5" />
      <path
         id="path1060"
         d="m 146.302,297.169 c 0,-23.713 18.948,-43.457 44.034,-47.795 -3.361,-0.581 -6.829,-0.895 -10.38,-0.895 -30.052,0 -54.414,21.8 -54.414,48.69 0,26.89 24.362,48.69 54.414,48.69 3.551,0 7.019,-0.315 10.38,-0.895 -25.084,-4.336 -44.034,-24.081 -44.034,-47.795 z"
         style="fill:#cca295"
         inkscape:connector-curvature="0" />
      <path
         id="path1062"
         d="m 512,128.02 v 22.471 c 0,13.495 -24.522,24.828 -24.522,24.828 l -11.21,2.562 -48.516,11.095 c 0,0 -0.087,0.032 -0.237,0.086 h -0.01 c -2.328,0.871 -28.952,71.383 -47.147,81.607 -33.587,18.876 -22.236,127.84 -22.236,127.84 0.054,0.451 0.194,0.893 0.399,1.281 0.259,0.485 0.604,0.904 1.034,1.237 l 19.337,14.743 c 1.174,0.893 1.703,2.39 1.358,3.832 l -3.169,13.259 c -0.41,1.679 -1.898,2.863 -3.633,2.863 h -34.729 c -1.898,0 -3.568,-1.313 -4.009,-3.175 l -5.207,-25.279 -1.498,-101.205 c -0.432,-1.808 -2.026,-3.111 -3.881,-3.154 l -3.751,-0.14 -118.946,-4.197 -62.938,-2.228 c -1.089,-0.032 -2.156,0.354 -2.942,1.109 l -54.413,50.549 c -0.765,0.699 -1.768,1.097 -2.824,1.097 H 60.362 c -2.275,0 -4.128,1.84 -4.128,4.122 v 50.527 c 0,0.668 0.172,1.324 0.474,1.905 0.28,0.538 0.679,1.033 1.174,1.399 l 9.55,7.168 c 0.754,0.571 1.304,1.389 1.531,2.293 l 3.524,14.087 c 0.647,2.604 -1.314,5.122 -3.999,5.122 H 34.601 c -2.275,0 -4.118,-1.84 -4.118,-4.111 V 325.942 c 0,-1.604 0.916,-3.056 2.36,-3.734 l 11.76,-13.238 c 1.444,-0.689 2.372,-2.141 2.372,-3.734 l -0.377,-67.563 -0.292,-52.991 c -0.086,-16.132 5.368,-31.048 14.628,-42.865 12.17,-15.55 30.882,-25.785 52.105,-26.475 l 68.425,-0.269 111.648,-0.419 24.544,-0.097 109.87,-15.68 c 7.136,0 13.959,2.852 18.982,7.91 l 5.81,5.855 c 5.023,5.047 11.856,7.889 18.982,7.889 h 33.22 c 4.128,-0.001 7.48,3.357 7.48,7.489 z"
         style="fill:#e1e9f2"
         inkscape:connector-curvature="0" />
      <path
         id="path1064"
         d="m 51.499,328.052 c 0,-1.655 0.921,-3.168 2.361,-3.868 l 11.757,-13.717 c 1.45,-0.711 2.371,-2.214 2.371,-3.868 l -0.372,-69.99 -0.294,-54.901 c -0.088,-16.724 5.37,-32.168 14.628,-44.413 7.119,-9.427 16.487,-16.944 27.277,-21.723 -19.645,1.72 -36.861,11.633 -48.296,26.248 -9.259,11.819 -14.716,26.726 -14.628,42.867 l 0.294,52.99 0.372,67.555 c 0,1.597 -0.921,3.048 -2.371,3.733 l -11.757,13.241 c -1.44,0.676 -2.361,2.137 -2.361,3.734 v 105.667 c 0,2.274 1.842,4.116 4.115,4.116 h 16.904 c 0,-0.001 0,-107.671 0,-107.671 z"
         style="fill:#b3d2f2"
         inkscape:connector-curvature="0" />
      <g
         id="g1070">
        <path
           id="path1066"
           d="M 68.488,435.718 H 34.594 c -2.282,0 -4.118,-1.845 -4.118,-4.128 v -22.03 l 26.235,-3.905 c 0.271,0.54 0.671,1.025 1.173,1.398 l 9.549,7.166 c 0.754,0.568 1.304,1.389 1.528,2.292 l 3.521,14.09 c 0.645,2.6 -1.311,5.117 -3.994,5.117 z"
           style="fill:#3f5666"
           inkscape:connector-curvature="0" />
        <path
           id="path1068"
           d="m 380.253,419.596 -3.177,13.261 c -0.4,1.677 -1.891,2.861 -3.624,2.861 H 338.72 c -1.901,0 -3.568,-1.305 -4.006,-3.168 l -5.217,-25.282 29.021,-7.474 c 0.252,0.485 0.606,0.904 1.044,1.239 l 19.332,14.733 c 1.172,0.894 1.703,2.394 1.359,3.83 z"
           style="fill:#3f5666"
           inkscape:connector-curvature="0" />
      </g>
      <path
         id="path1072"
         d="m 294.716,128.187 c 0,31.694 -25.69,57.391 -57.375,57.391 -31.696,0 -57.386,-25.696 -57.386,-57.391 0,-4.509 0.519,-8.898 1.509,-13.113 l 111.645,-0.421 c 1.049,4.339 1.607,8.868 1.607,13.534 z"
         style="fill:#2f3f4a"
         inkscape:connector-curvature="0" />
      <path
         id="path1074"
         d="m 512,128.02 v 22.471 c 0,13.495 -24.522,24.828 -24.522,24.828 l -11.21,2.562 c -10.974,-19.436 -4.15,-41.681 3.859,-57.35 h 24.393 c 4.128,-0.001 7.48,3.357 7.48,7.489 z"
         style="fill:#e8c1b5"
         inkscape:connector-curvature="0" />
      <g
         id="g1082">
        <path
           id="path1076"
           d="m 102.131,189.732 c 0,26.765 -21.692,48.463 -48.44,48.463 -2.411,0 -4.781,-0.177 -7.094,-0.519 l -0.294,-52.991 c -0.088,-16.142 5.369,-31.048 14.628,-42.867 23.319,3.499 41.2,23.619 41.2,47.914 z"
           style="fill:#2f3f4a"
           inkscape:connector-curvature="0" />
        <path
           id="path1078"
           d="m 320.376,302.77 -118.954,-4.194 c 5.771,-24.579 30.03,-43.024 59.081,-43.024 30.685,0 56.023,20.57 59.873,47.218 z"
           style="fill:#2f3f4a"
           inkscape:connector-curvature="0" />
        <ellipse
           id="ellipse1080"
           ry="8.0719995"
           rx="8.0839996"
           cy="128.41701"
           cx="440.54999"
           style="fill:#2f3f4a" />
      </g>
      <path
         id="path1084"
         d="m 429.166,104.571 c -3.867,-6.263 -13.804,-20.388 -28.686,-27.866 -2.567,-1.29 -5.616,0.489 -5.707,3.361 -0.336,10.642 -0.138,33.61 6.898,46.136 1.244,2.216 4.251,2.648 6.099,0.904 4.147,-3.914 11.824,-10.887 20.416,-17.353 1.618,-1.216 2.042,-3.46 0.98,-5.182 z"
         style="fill:#e1e9f2"
         inkscape:connector-curvature="0" />
      <path
         id="path1086"
         d="m 421.323,103.487 c -2.078,-3.366 -7.418,-10.955 -15.413,-14.973 -1.379,-0.694 -3.018,0.262 -3.067,1.807 -0.181,5.719 -0.074,18.059 3.707,24.79 0.669,1.19 2.284,1.423 3.277,0.486 2.228,-2.103 6.353,-5.849 10.97,-9.324 0.869,-0.654 1.097,-1.86 0.526,-2.786 z"
         style="fill:#91aac4"
         inkscape:connector-curvature="0" />
      <path
         id="path1088"
         d="m 34.865,283.472 v -37.426 c 0,-2.318 -1.878,-4.195 -4.194,-4.195 v 0 C 13.732,241.851 0,255.586 0,272.529 v 37.426 c 0,2.318 1.878,4.195 4.194,4.195 v 0 c 16.939,0 30.671,-13.735 30.671,-30.678 z"
         style="fill:#2f3f4a"
         inkscape:connector-curvature="0" />
      <g
         id="g1090" />
      <g
         id="g1092" />
      <g
         id="g1094" />
      <g
         id="g1096" />
      <g
         id="g1098" />
      <g
         id="g1100" />
      <g
         id="g1102" />
      <g
         id="g1104" />
      <g
         id="g1106" />
      <g
         id="g1108" />
      <g
         id="g1110" />
      <g
         id="g1112" />
      <g
         id="g1114" />
      <g
         id="g1116" />
      <g
         id="g1118" />
    </g>
    <path
       style="fill:none;stroke:#3d371e;stroke-width:1.34812796;stroke-linecap:round;stroke-linejoin:round;stroke-miterlimit:4;stroke-dasharray:none;stroke-opacity:1"
       d="m 158.75707,248.45057 c -33.51551,28.02846 -63.654323,-6.32299 -63.654323,-6.32299"
       id="path1291"
       inkscape:connector-curvature="0" />
    <g
       id="g1279"
       transform="matrix(0.22245997,0,0,0.22245997,130.28792,192.30102)">
      <g
         id="g1221">
        <g
           id="g1219">
          <path
             id="path1215"
             d="m 223.821,76.022 c 10.333,-0.333 19,-4.333 26,-12 7,-7.667 10.333,-16.667 10,-27 -0.333,-10.335 -4.167,-19.168 -11.5,-26.5 -7.333,-7.333 -16.167,-10.833 -26.5,-10.5 -10.333,0.333 -19,4.333 -26,12 -7,7.667 -10.5,16.667 -10.5,27 0,10.333 3.833,19.167 11.5,26.5 7.667,7.333 16.667,10.833 27,10.5 z"
             style="fill:#010002"
             inkscape:connector-curvature="0" />
          <path
             id="path1217"
             d="m 350.321,202.522 -55,-30 -45,-72 c -8.667,-10.667 -19.333,-16 -32,-16 -8.667,0 -17,3.667 -25,11 l -68,69 c -2,2.667 -3.333,5.667 -4,9 l -9,77 v 2 c 0,4.666 1.667,8.666 5,12 3.333,3.332 7.333,5 12,5 4.667,0 8.5,-1.668 11.5,-5 3,-3.334 4.833,-7 5.5,-11 l 7,-66 24,-24 -22,184 -39,87.001 c -1.333,4 -2,7.658 -2,11.002 0,7.322 2.5,13.5 7.5,18.5 5,5 11.167,7.164 18.5,6.5 10,0 17.333,-4.678 22,-14 l 42,-94.002 c 0,-0.67 0.333,-1.835 1,-3.5 0.668,-1.67 1.335,-3.17 2,-4.5 0.667,-1.335 1,-2.67 1,-4 l 5,-45.001 43,148.003 c 4.667,12 13,17.666 25,17 6.667,0 12.5,-2.5 17.5,-7.5 5,-5 7.5,-11.178 7.5,-18.5 0,-0.678 -0.167,-1.5 -0.5,-2.5 -0.333,-1 -0.5,-1.836 -0.5,-2.502 l -60,-205.001 7,-67 17,27 c 1.333,2 3,3.667 5,5 l 59,33 c 4,1.333 6.667,2 8,2 4.667,0 8.667,-1.833 12,-5.5 3.333,-3.668 5,-7.834 5,-12.5 0,-6 -2.667,-10.667 -8,-14 z"
             style="fill:#010002"
             inkscape:connector-curvature="0" />
        </g>
      </g>
      <g
         id="g1223" />
      <g
         id="g1225" />
      <g
         id="g1227" />
      <g
         id="g1229" />
      <g
         id="g1231" />
      <g
         id="g1233" />
      <g
         id="g1235" />
      <g
         id="g1237" />
      <g
         id="g1239" />
      <g
         id="g1241" />
      <g
         id="g1243" />
      <g
         id="g1245" />
      <g
         id="g1247" />
      <g
         id="g1249" />
      <g
         id="g1251" />
    </g>
    <path
       style="fill:none;stroke:#807638;stroke-width:2.69625592;stroke-linecap:round;stroke-linejoin:miter;stroke-miterlimit:4;stroke-dasharray:none;stroke-opacity:1"
       d="M 95.157693,242.10845 C 84.088943,234.47832 84.193807,223.52013 84.193807,223.52013"
       id="path1293"
       inkscape:connector-curvature="0" />
  </g>
</svg>
