<?xml version="1.0" encoding="UTF-8" standalone="no"?>
<!-- Created with Inkscape (http://www.inkscape.org/) -->

<svg
   xmlns:dc="http://purl.org/dc/elements/1.1/"
   xmlns:cc="http://creativecommons.org/ns#"
   xmlns:rdf="http://www.w3.org/1999/02/22-rdf-syntax-ns#"
   xmlns:svg="http://www.w3.org/2000/svg"
   xmlns="http://www.w3.org/2000/svg"
   xmlns:sodipodi="http://sodipodi.sourceforge.net/DTD/sodipodi-0.dtd"
   xmlns:inkscape="http://www.inkscape.org/namespaces/inkscape"
   width="210mm"
   height="297mm"
   viewBox="0 0 210 297"
   version="1.1"
   id="svg5432"
   sodipodi:docname="beanstalkNight.svg"
   inkscape:version="0.92.3 (2405546, 2018-03-11)">
  <defs
     id="defs5426">
    <filter
       style="color-interpolation-filters:sRGB;"
       inkscape:label="Color Shift"
       id="filter4414">
      <feColorMatrix
         type="hueRotate"
         values="302"
         result="color1"
         id="feColorMatrix4410" />
      <feColorMatrix
         type="saturate"
         values="0.6"
         result="fbSourceGraphic"
         id="feColorMatrix4412" />
      <feColorMatrix
         result="fbSourceGraphicAlpha"
         in="fbSourceGraphic"
         values="0 0 0 -1 0 0 0 0 -1 0 0 0 0 -1 0 0 0 0 1 0"
         id="feColorMatrix4416" />
      <feColorMatrix
         id="feColorMatrix4418"
         type="hueRotate"
         values="330"
         result="color1"
         in="fbSourceGraphic" />
      <feColorMatrix
         id="feColorMatrix4420"
         type="saturate"
         values="0.6"
         result="fbSourceGraphic" />
      <feColorMatrix
         result="fbSourceGraphicAlpha"
         in="fbSourceGraphic"
         values="0 0 0 -1 0 0 0 0 -1 0 0 0 0 -1 0 0 0 0 1 0"
         id="feColorMatrix4422" />
      <feColorMatrix
         id="feColorMatrix4424"
         type="hueRotate"
         values="330"
         result="color1"
         in="fbSourceGraphic" />
      <feColorMatrix
         id="feColorMatrix4426"
         type="saturate"
         values="0.43"
         result="fbSourceGraphic" />
      <feColorMatrix
         result="fbSourceGraphicAlpha"
         in="fbSourceGraphic"
         values="0 0 0 -1 0 0 0 0 -1 0 0 0 0 -1 0 0 0 0 1 0"
         id="feColorMatrix4614" />
      <feColorMatrix
         id="feColorMatrix4616"
         type="hueRotate"
         values="269"
         result="color1"
         in="fbSourceGraphic" />
      <feColorMatrix
         id="feColorMatrix4618"
         type="saturate"
         values="0.768229"
         result="fbSourceGraphic" />
      <feColorMatrix
         result="fbSourceGraphicAlpha"
         in="fbSourceGraphic"
         values="0 0 0 -1 0 0 0 0 -1 0 0 0 0 -1 0 0 0 0 1 0"
         id="feColorMatrix4620" />
      <feColorMatrix
         id="feColorMatrix4622"
         type="hueRotate"
         values="269"
         result="color1"
         in="fbSourceGraphic" />
      <feColorMatrix
         id="feColorMatrix4624"
         type="saturate"
         values="0.77"
         result="fbSourceGraphic" />
      <feColorMatrix
         result="fbSourceGraphicAlpha"
         in="fbSourceGraphic"
         values="0 0 0 -1 0 0 0 0 -1 0 0 0 0 -1 0 0 0 0 1 0"
         id="feColorMatrix4848" />
      <feColorMatrix
         id="feColorMatrix4850"
         type="hueRotate"
         values="98"
         result="color1"
         in="fbSourceGraphic" />
      <feColorMatrix
         id="feColorMatrix4852"
         type="saturate"
         values="1"
         result="color2" />
    </filter>
  </defs>
  <sodipodi:namedview
     id="base"
     pagecolor="#ffffff"
     bordercolor="#666666"
     borderopacity="1.0"
     inkscape:pageopacity="0.0"
     inkscape:pageshadow="2"
     inkscape:zoom="2.8523148"
     inkscape:cx="140.35481"
     inkscape:cy="207.0841"
     inkscape:document-units="mm"
     inkscape:current-layer="g5975"
     showgrid="false"
     inkscape:window-width="2256"
     inkscape:window-height="1410"
     inkscape:window-x="-11"
     inkscape:window-y="-11"
     inkscape:window-maximized="1"
     inkscape:snap-page="true"
     inkscape:snap-bbox="true"
     inkscape:bbox-nodes="true" />
  <metadata
     id="metadata5429">
    <rdf:RDF>
      <cc:Work
         rdf:about="">
        <dc:format>image/svg+xml</dc:format>
        <dc:type
           rdf:resource="http://purl.org/dc/dcmitype/StillImage" />
        <dc:title></dc:title>
      </cc:Work>
    </rdf:RDF>
  </metadata>
  <g
     inkscape:label="Layer 1"
     inkscape:groupmode="layer"
     id="layer1">
    <g
       id="g5975"
       style="">
      <path
         style="opacity:1;fill:#6a655e;fill-opacity:1;stroke:none;stroke-width:1.22105873;stroke-linecap:round;stroke-linejoin:round;stroke-miterlimit:4;stroke-dasharray:none;stroke-opacity:1;paint-order:markers fill stroke"
         d="m 30.381515,283.52179 a 2.6919457,2.6919457 0 0 0 -2.093412,1.00357 2.6919457,2.6919457 0 0 0 -1.086755,-0.23101 2.6919457,2.6919457 0 0 0 -2.644283,2.19419 2.6919457,2.6919457 0 0 0 -0.619601,-0.0755 2.6919457,2.6919457 0 0 0 -2.691826,2.69235 2.6919457,2.6919457 0 0 0 1.24437,2.26549 2.6919457,2.6919457 0 0 0 -0.01757,0.29456 2.6919457,2.6919457 0 0 0 2.691826,2.69235 2.6919457,2.6919457 0 0 0 1.485698,-0.44908 2.6919457,2.6919457 0 0 0 2.562633,1.87688 2.6919457,2.6919457 0 0 0 1.622642,-0.54724 2.6919457,2.6919457 0 0 0 2.445327,1.57459 2.6919457,2.6919457 0 0 0 1.794205,-0.68887 2.6919457,2.6919457 0 0 0 0.761196,0.11163 2.6919457,2.6919457 0 0 0 0.904335,-0.15915 2.6919457,2.6919457 0 0 0 1.568381,0.50694 2.6919457,2.6919457 0 0 0 1.879473,-0.76533 2.6919457,2.6919457 0 0 0 2.225186,1.18184 2.6919457,2.6919457 0 0 0 1.981274,-0.87437 2.6919457,2.6919457 0 0 0 1.013891,0.19947 2.6919457,2.6919457 0 0 0 1.990577,-0.88469 2.6919457,2.6919457 0 0 0 1.34462,0.36277 2.6919457,2.6919457 0 0 0 1.98851,-0.88212 2.6919457,2.6919457 0 0 0 0.324012,0.0217 2.6919457,2.6919457 0 0 0 2.68614,-2.57763 2.6919457,2.6919457 0 0 0 1.885672,-2.56521 2.6919457,2.6919457 0 0 0 -2.091862,-2.62155 2.6919457,2.6919457 0 0 0 -2.579688,-1.92857 2.6919457,2.6919457 0 0 0 -0.743106,0.10594 2.6919457,2.6919457 0 0 0 -2.111499,-1.0232 2.6919457,2.6919457 0 0 0 -1.621607,0.54623 2.6919457,2.6919457 0 0 0 -1.693952,-0.60256 2.6919457,2.6919457 0 0 0 -1.424202,0.40929 2.6919457,2.6919457 0 0 0 -1.729611,-0.62942 2.6919457,2.6919457 0 0 0 -1.690854,0.59894 2.6919457,2.6919457 0 0 0 -2.125451,-1.0413 2.6919457,2.6919457 0 0 0 -1.531172,0.48165 2.6919457,2.6919457 0 0 0 -1.306897,-0.33954 2.6919457,2.6919457 0 0 0 -1.141531,0.25736 2.6919457,2.6919457 0 0 0 -1.404049,-0.39947 2.6919457,2.6919457 0 0 0 -0.915707,0.1628 2.6919457,2.6919457 0 0 0 -1.135332,-0.25477 z"
         id="use1458"
         inkscape:connector-curvature="0" />
      <g
         transform="matrix(1.2210587,0,0,1.2210587,-86.544717,-46.149955)"
         style="stroke:#4b474e;stroke-width:4;stroke-miterlimit:4;stroke-dasharray:none;stroke-opacity:1"
         id="g2518">
        <path
           style="fill:none;stroke:#4b474e;stroke-width:4;stroke-linecap:round;stroke-linejoin:miter;stroke-miterlimit:4;stroke-dasharray:none;stroke-opacity:1"
           d="m 106.58502,274.49226 c 10.3363,-36.38493 -21.126779,-54.2111 -7.325827,-89.13085 13.428747,-33.97798 -9.279373,-39.80363 -4.883882,-59.58335 4.395493,-19.77973 14.009319,-25.5107 9.604379,-46.65335 C 101.53994,67.414521 89.719595,60.152896 97.30564,39.821734"
           id="path5434"
           inkscape:connector-curvature="0"
           sodipodi:nodetypes="csssc" />
        <path
           style="fill:none;stroke:#4b474e;stroke-width:4;stroke-linecap:round;stroke-linejoin:miter;stroke-miterlimit:4;stroke-dasharray:none;stroke-opacity:1"
           d="M 98.159489,273.97433 C 109.9595,242.10957 116.14723,221.51385 99.230291,194.88245 85.043084,172.54832 108.56335,159.12198 100.63484,125.58835 95.950633,105.77651 91.379436,95.738908 93.876336,79.901323 96.373225,64.063739 105.3512,60.045113 97.30564,39.821734"
           id="path5434-9"
           inkscape:connector-curvature="0"
           sodipodi:nodetypes="csssc" />
      </g>
      <path
         id="path2531"
         d="m 62.047247,245.71499 c 8.940005,-0.98315 11.845197,-6.63862 11.854685,-6.63862 0.146673,-0.28191 0.494101,-0.39145 0.776007,-0.24476 0.142168,0.074 0.247045,0.20398 0.28933,0.35856 2.971568,10.07806 1.349856,17.02648 -2.061135,21.14875 -1.320526,1.60678 -3.011876,2.86852 -4.928388,3.67654 -1.76548,0.74874 -3.681822,1.07355 -5.595404,0.94837 -3.663884,-0.25606 -7.008486,-2.21288 -8.560659,-5.7187 -0.397687,-0.89622 -0.654696,-1.84839 -0.761868,-2.823 -0.216774,-1.95341 0.164623,-3.92665 1.0938,-5.65863 0.997532,-1.84814 2.585812,-3.30848 4.511092,-4.14756 1.074275,-0.47332 2.21533,-0.77719 3.38254,-0.90095 z"
         style="fill:#86818a;fill-opacity:1;stroke:#006200;stroke-width:0;stroke-miterlimit:4;stroke-dasharray:none;stroke-opacity:1"
         inkscape:connector-curvature="0" />
      <path
         id="path2533"
         d="m 73.838705,239.28817 c 0.0073,-0.31763 0.271625,-0.56886 0.589259,-0.56105 0.317622,0.007 0.568867,0.27164 0.56104,0.58926 -5.5e-4,0.0234 -0.0024,0.0466 -0.0061,0.0699 0,0.0284 -0.502636,6.63862 -6.954747,13.32783 l -0.06008,0.0633 c -1.515822,1.55477 -3.179112,2.9586 -4.966314,4.19181 l 3.875689,0.72076 c 0.308928,0.0745 0.498924,0.38536 0.424391,0.69421 -0.06752,0.27961 -0.331054,0.46645 -0.617233,0.43752 l -5.057992,-0.94837 c -4.612268,2.92099 -12.430035,5.61753 -13.112863,11.98112 -0.04225,0.31494 -0.331848,0.536 -0.646795,0.49371 -0.299758,-0.0402 -0.51718,-0.30569 -0.497569,-0.60751 0.815594,-7.62809 8.566972,-9.59123 13.795679,-12.92635 l 0.07278,-0.0474 c 2.086655,-1.32062 4.019603,-2.86971 5.762957,-4.61858 l -0.458385,-4.5364 c -0.04225,-0.31494 0.178763,-0.60451 0.49371,-0.64679 0.314936,-0.0422 0.60451,0.17876 0.646783,0.49371 0.0012,0.0131 0.0037,0.0261 0.0037,0.0393 l 0.347733,3.52163 c 5.37736,-6.03798 5.800969,-11.7061 5.804132,-11.73138 z"
         style="fill:#4b474e;fill-opacity:1;stroke:#4b474e;stroke-width:0;stroke-miterlimit:4;stroke-dasharray:none;stroke-opacity:1"
         inkscape:connector-curvature="0" />
      <path
         id="path2531-3"
         d="M 16.988129,195.12371 C 8.0481237,194.14057 5.142932,188.4851 5.1334443,188.4851 c -0.1466735,-0.28191 -0.4941014,-0.39145 -0.7760072,-0.24476 -0.1421679,0.074 -0.2470446,0.20398 -0.2893299,0.35856 -2.9715684,10.07806 -1.3498559,17.02648 2.0611349,21.14875 1.3205262,1.60678 3.0118756,2.86852 4.9283879,3.67654 1.76548,0.74874 3.681822,1.07355 5.595404,0.94837 3.663885,-0.25606 7.008486,-2.21288 8.56066,-5.7187 0.397686,-0.89622 0.654695,-1.84839 0.761867,-2.823 0.216775,-1.95341 -0.164623,-3.92665 -1.0938,-5.65863 -0.997532,-1.84814 -2.585812,-3.30848 -4.511091,-4.14756 -1.074276,-0.47332 -2.215331,-0.77719 -3.382541,-0.90096 z"
         style="fill:#86818a;fill-opacity:1;stroke:#006200;stroke-width:0;stroke-miterlimit:4;stroke-dasharray:none;stroke-opacity:1"
         inkscape:connector-curvature="0" />
      <path
         id="path2533-2"
         d="m 5.1966708,188.6969 c -0.00733,-0.31763 -0.2716246,-0.56886 -0.5892586,-0.56105 -0.3176217,0.007 -0.5688668,0.27164 -0.5610398,0.58926 5.495e-4,0.0234 0.00244,0.0466 0.00611,0.0699 0,0.0284 0.5026366,6.63862 6.9547476,13.32783 l 0.06008,0.0632 c 1.515822,1.55477 3.179112,2.9586 4.966315,4.19181 l -3.87569,0.72076 c -0.308927,0.0745 -0.498924,0.38536 -0.424391,0.69421 0.06752,0.27961 0.331054,0.46645 0.617233,0.43752 l 5.057992,-0.94837 c 4.612268,2.92099 12.430035,5.61753 13.112864,11.98112 0.04225,0.31494 0.331847,0.536 0.646794,0.49371 0.299758,-0.0402 0.51718,-0.30569 0.49757,-0.60751 -0.815594,-7.62809 -8.566973,-9.59123 -13.79568,-12.92635 l -0.07278,-0.0474 c -2.086655,-1.32062 -4.019604,-2.86971 -5.762958,-4.61859 l 0.458385,-4.53639 c 0.04225,-0.31494 -0.178763,-0.60451 -0.49371,-0.64679 -0.314936,-0.0422 -0.60451,0.17876 -0.646783,0.49371 -0.0012,0.0131 -0.0037,0.0261 -0.0037,0.0393 l -0.347733,3.52163 C 5.6237116,194.39048 5.2001019,188.72236 5.1969394,188.69708 Z"
         style="fill:#4b474e;fill-opacity:1;stroke:#4b474e;stroke-width:0;stroke-miterlimit:4;stroke-dasharray:none;stroke-opacity:1"
         inkscape:connector-curvature="0" />
      <path
         id="path2531-2"
         d="m 52.631933,126.25381 c 8.940006,-0.98315 11.845197,-6.63862 11.854685,-6.63862 0.146674,-0.2819 0.494101,-0.39145 0.776007,-0.24476 0.142168,0.074 0.247045,0.20398 0.28933,0.35856 2.971569,10.07806 1.349856,17.02648 -2.061135,21.14875 -1.320526,1.60678 -3.011875,2.86853 -4.928388,3.67654 -1.76548,0.74874 -3.681822,1.07355 -5.595404,0.94837 -3.663884,-0.25606 -7.008486,-2.21288 -8.560659,-5.7187 -0.397687,-0.89622 -0.654695,-1.84838 -0.761868,-2.823 -0.216774,-1.95341 0.164624,-3.92665 1.0938,-5.65863 0.997532,-1.84814 2.585812,-3.30848 4.511092,-4.14756 1.074275,-0.47331 2.21533,-0.77719 3.38254,-0.90095 z"
         style="fill:#86818a;fill-opacity:1;stroke-width:0;stroke-miterlimit:4;stroke-dasharray:none"
         inkscape:connector-curvature="0" />
      <path
         id="path2533-24"
         d="m 64.423392,119.827 c 0.0073,-0.31764 0.271624,-0.56887 0.589258,-0.56106 0.317622,0.007 0.568867,0.27164 0.56104,0.58926 -5.5e-4,0.0234 -0.0024,0.0466 -0.0061,0.0699 0,0.0285 -0.502637,6.63862 -6.954748,13.32783 l -0.06008,0.0632 c -1.515822,1.55477 -3.179112,2.9586 -4.966314,4.19181 l 3.875689,0.72076 c 0.308928,0.0745 0.498925,0.38536 0.424391,0.69421 -0.06752,0.27961 -0.331053,0.46645 -0.617233,0.43752 l -5.057991,-0.94837 c -4.612269,2.92099 -12.430036,5.61753 -13.112864,11.98112 -0.04225,0.31494 -0.331847,0.536 -0.646795,0.49372 -0.299758,-0.0402 -0.517179,-0.3057 -0.497569,-0.60752 0.815594,-7.62809 8.566972,-9.59123 13.79568,-12.92635 l 0.07278,-0.0474 c 2.086655,-1.32061 4.019603,-2.86971 5.762957,-4.61858 l -0.458385,-4.5364 c -0.04225,-0.31494 0.178763,-0.60451 0.493711,-0.64679 0.314935,-0.0422 0.604509,0.17876 0.646782,0.49371 0.0012,0.0131 0.0037,0.0261 0.0037,0.0393 l 0.347733,3.52163 c 5.37736,-6.03798 5.800969,-11.70609 5.804132,-11.73138 z"
         style="fill:#4b474e;fill-opacity:1;stroke:#4b474e;stroke-width:0;stroke-miterlimit:4;stroke-dasharray:none;stroke-opacity:1"
         inkscape:connector-curvature="0" />
      <path
         id="path2531-4"
         d="M 14.474432,82.498328 C 5.5344266,81.51518 2.6292349,75.859713 2.6197473,75.859713 2.4730737,75.577807 2.1256458,75.468266 1.84374,75.614951 c -0.1421678,0.074 -0.2470446,0.203978 -0.2893298,0.358564 -2.9715685,10.078057 -1.349856,17.026479 2.0611348,21.148749 1.3205262,1.606779 3.0118756,2.868523 4.9283883,3.676536 1.7654797,0.74874 3.6818217,1.07355 5.5954037,0.94837 3.663884,-0.25606 7.008486,-2.212875 8.56066,-5.718694 0.397686,-0.89622 0.654695,-1.848389 0.761867,-2.823002 0.216774,-1.953413 -0.164623,-3.926656 -1.0938,-5.65863 -0.997532,-1.848146 -2.585812,-3.308483 -4.511092,-4.147558 -1.074275,-0.473319 -2.21533,-0.777192 -3.38254,-0.900958 z"
         style="fill:#86818a;fill-opacity:1;stroke-width:0;stroke-miterlimit:4;stroke-dasharray:none"
         inkscape:connector-curvature="0" />
      <path
         id="path2533-3"
         d="m 2.6829737,76.071517 c -0.00733,-0.317634 -0.2716245,-0.568866 -0.5892585,-0.561052 -0.3176218,0.0073 -0.5688669,0.271637 -0.5610399,0.589259 5.495e-4,0.02344 0.00244,0.04664 0.00611,0.06984 0,0.02845 0.5026366,6.638628 6.9547474,13.327832 l 0.060076,0.06325 c 1.5158223,1.554774 3.1791123,2.9586 4.9663143,4.191809 l -3.8756891,0.720766 c -0.3089278,0.07449 -0.4989246,0.385354 -0.4243911,0.694209 0.067524,0.27961 0.3310534,0.466444 0.6172329,0.437517 L 14.895063,94.65658 c 4.612268,2.920993 12.430035,5.61753 13.112863,11.98113 0.04225,0.31493 0.331848,0.53599 0.646795,0.49371 0.299758,-0.0402 0.51718,-0.3057 0.497569,-0.60752 -0.815593,-7.628085 -8.566972,-9.59123 -13.795679,-12.926344 l -0.07278,-0.04738 C 13.19718,92.229567 11.264232,90.680471 9.520878,88.931598 l 0.4583854,-4.536392 c 0.042249,-0.314948 -0.178763,-0.60451 -0.4937107,-0.646795 -0.3149354,-0.04225 -0.6045095,0.178763 -0.6467825,0.493711 -0.00122,0.01307 -0.00366,0.02613 -0.00366,0.03932 L 8.4873739,87.803071 C 3.1100145,81.765094 2.6864048,76.096977 2.6832423,76.071688 Z"
         style="fill:#4b474e;fill-opacity:1;stroke:#4b474e;stroke-width:0;stroke-miterlimit:4;stroke-dasharray:none;stroke-opacity:1"
         inkscape:connector-curvature="0" />
      <path
         id="path2531-6"
         d="m 50.216972,17.237832 c 8.940006,-0.983147 11.845197,-6.638615 11.854685,-6.638615 0.146674,-0.281906 0.494101,-0.391447 0.776007,-0.244761 0.142168,0.074 0.247045,0.203978 0.28933,0.358564 2.971568,10.078056 1.349856,17.026479 -2.061135,21.148748 -1.320526,1.606779 -3.011875,2.868524 -4.928388,3.676535 -1.76548,0.748741 -3.681822,1.073555 -5.595404,0.948372 -3.663884,-0.256056 -7.008486,-2.212876 -8.560659,-5.718694 -0.397687,-0.896221 -0.654695,-1.84839 -0.761868,-2.823003 -0.216774,-1.953413 0.164623,-3.926656 1.0938,-5.65863 0.997532,-1.848145 2.585812,-3.308483 4.511092,-4.147558 1.074275,-0.473319 2.21533,-0.777191 3.38254,-0.900958 z"
         style="fill:#86818a;fill-opacity:1;stroke-width:0;stroke-miterlimit:4;stroke-dasharray:none"
         inkscape:connector-curvature="0" />
      <path
         id="path2533-31"
         d="m 62.008431,10.811022 c 0.0073,-0.317634 0.271624,-0.568867 0.589258,-0.561052 0.317622,0.0073 0.568867,0.271636 0.56104,0.589258 -5.5e-4,0.02344 -0.0024,0.04664 -0.0061,0.06984 0,0.02845 -0.502637,6.638627 -6.954748,13.327831 l -0.06008,0.06325 c -1.515822,1.554774 -3.179112,2.958601 -4.966314,4.191809 l 3.875689,0.720766 c 0.308928,0.07448 0.498924,0.385354 0.424391,0.694209 -0.06753,0.27961 -0.331053,0.466444 -0.617233,0.437517 l -5.057991,-0.948371 c -4.612269,2.920992 -12.430036,5.617529 -13.112864,11.981125 -0.04225,0.314936 -0.331847,0.535996 -0.646795,0.493711 -0.299758,-0.04017 -0.517179,-0.305692 -0.497569,-0.607513 0.815594,-7.628088 8.566972,-9.591233 13.79568,-12.926348 l 0.07278,-0.04738 c 2.086655,-1.320611 4.019603,-2.869707 5.762957,-4.618581 L 54.712141,19.13471 c -0.04225,-0.314947 0.178763,-0.604509 0.49371,-0.646795 0.314936,-0.04225 0.60451,0.178763 0.646783,0.493711 0.0012,0.01307 0.0037,0.02613 0.0037,0.03932 l 0.347733,3.521631 c 5.37736,-6.037976 5.800969,-11.706094 5.804132,-11.731382 z"
         style="fill:#4b474e;fill-opacity:1;stroke:#4b474e;stroke-width:0;stroke-miterlimit:4;stroke-dasharray:none;stroke-opacity:1"
         inkscape:connector-curvature="0" />
    </g>
  </g>
</svg>
