<?xml version="1.0" encoding="UTF-8" standalone="no"?>
<!-- Generator: Adobe Illustrator 16.0.0, SVG Export Plug-In . SVG Version: 6.00 Build 0)  -->

<svg
   xmlns:dc="http://purl.org/dc/elements/1.1/"
   xmlns:cc="http://creativecommons.org/ns#"
   xmlns:rdf="http://www.w3.org/1999/02/22-rdf-syntax-ns#"
   xmlns:svg="http://www.w3.org/2000/svg"
   xmlns="http://www.w3.org/2000/svg"
   xmlns:sodipodi="http://sodipodi.sourceforge.net/DTD/sodipodi-0.dtd"
   xmlns:inkscape="http://www.inkscape.org/namespaces/inkscape"
   version="1.1"
   id="Capa_1"
   x="0px"
   y="0px"
   width="210mm"
   height="297mm"
   viewBox="0 0 793.70081 1122.5197"
   xml:space="preserve"
   sodipodi:docname="JackMom.svg"
   inkscape:version="0.92.3 (2405546, 2018-03-11)"><metadata
   id="metadata903"><rdf:RDF><cc:Work
       rdf:about=""><dc:format>image/svg+xml</dc:format><dc:type
         rdf:resource="http://purl.org/dc/dcmitype/StillImage" /><dc:title></dc:title></cc:Work></rdf:RDF></metadata><defs
   id="defs901" /><sodipodi:namedview
   pagecolor="#ffffff"
   bordercolor="#666666"
   borderopacity="1"
   objecttolerance="10"
   gridtolerance="10"
   guidetolerance="10"
   inkscape:pageopacity="0"
   inkscape:pageshadow="2"
   inkscape:window-width="2256"
   inkscape:window-height="1410"
   id="namedview899"
   showgrid="false"
   units="mm"
   inkscape:snap-page="true"
   inkscape:snap-bbox="true"
   inkscape:bbox-nodes="true"
   inkscape:zoom="0.56566062"
   inkscape:cx="256.01844"
   inkscape:cy="711.73386"
   inkscape:window-x="-11"
   inkscape:window-y="-11"
   inkscape:window-maximized="1"
   inkscape:current-layer="Capa_1" />
<g
   id="g866"
   transform="matrix(8.9747729,0,0,8.9747729,-317.98599,2.5295228e-4)">
	<g
   id="g864">
		<circle
   cx="62.257999"
   cy="12.942"
   r="12.942"
   id="circle860" />
		<path
   d="M 89.59,65.152 C 86.583,44.658 82.033,35.881 70.864,29.035 70.647,28.902 70.42,28.806 70.192,28.709 68.751,27.748 67.132,27.041 65.481,26.635 L 62.257,29.881 59.132,26.6 c -0.011,0.002 -0.021,0.004 -0.032,0.006 -2.392,0.572 -4.717,1.785 -6.534,3.488 -9.979,6.711 -14.228,15.603 -17.081,35.058 -0.403,2.744 1.497,5.297 4.242,5.699 0.248,0.035 0.493,0.055 0.736,0.055 2.452,0 4.599,-1.799 4.965,-4.297 1.026,-6.998 2.214,-12.111 3.583,-15.978 V 56.5 h -0.015 l -4.783,36.86 5.462,0.008 0.001,25.771 c 0,3.278 2.659,5.936 5.939,5.936 3.279,0 5.938,-2.658 5.938,-5.938 L 61.552,93.382 h 0.844 l -0.002,25.755 c 0,3.279 2.658,5.938 5.938,5.938 v 0 c 3.279,0 5.938,-2.658 5.938,-5.938 l 0.001,-25.738 6.561,0.009 -5.328,-36.695 V 49.15 c 1.607,4.012 2.979,9.527 4.143,17.461 0.367,2.497 2.513,4.297 4.965,4.297 0.243,0 0.488,-0.021 0.736,-0.056 2.745,-0.403 4.643,-2.956 4.242,-5.7 z"
   id="path862"
   inkscape:connector-curvature="0" />
	</g>
</g>
<g
   id="g868"
   transform="translate(0,997.44469)">
</g>
<g
   id="g870"
   transform="translate(0,997.44469)">
</g>
<g
   id="g872"
   transform="translate(0,997.44469)">
</g>
<g
   id="g874"
   transform="translate(0,997.44469)">
</g>
<g
   id="g876"
   transform="translate(0,997.44469)">
</g>
<g
   id="g878"
   transform="translate(0,997.44469)">
</g>
<g
   id="g880"
   transform="translate(0,997.44469)">
</g>
<g
   id="g882"
   transform="translate(0,997.44469)">
</g>
<g
   id="g884"
   transform="translate(0,997.44469)">
</g>
<g
   id="g886"
   transform="translate(0,997.44469)">
</g>
<g
   id="g888"
   transform="translate(0,997.44469)">
</g>
<g
   id="g890"
   transform="translate(0,997.44469)">
</g>
<g
   id="g892"
   transform="translate(0,997.44469)">
</g>
<g
   id="g894"
   transform="translate(0,997.44469)">
</g>
<g
   id="g896"
   transform="translate(0,997.44469)">
</g>
</svg>