<?xml version="1.0" encoding="UTF-8" standalone="no"?>
<svg
   xmlns:dc="http://purl.org/dc/elements/1.1/"
   xmlns:cc="http://creativecommons.org/ns#"
   xmlns:rdf="http://www.w3.org/1999/02/22-rdf-syntax-ns#"
   xmlns:svg="http://www.w3.org/2000/svg"
   xmlns="http://www.w3.org/2000/svg"
   xmlns:sodipodi="http://sodipodi.sourceforge.net/DTD/sodipodi-0.dtd"
   xmlns:inkscape="http://www.inkscape.org/namespaces/inkscape"
   version="1.1"
   viewBox="0 0 315.896 315.896"
   enable-background="new 0 0 315.896 315.896"
   id="svg9791"
   sodipodi:docname="jack Climbing.svg"
   inkscape:version="0.92.3 (2405546, 2018-03-11)">
  <metadata
     id="metadata9797">
    <rdf:RDF>
      <cc:Work
         rdf:about="">
        <dc:format>image/svg+xml</dc:format>
        <dc:type
           rdf:resource="http://purl.org/dc/dcmitype/StillImage" />
      </cc:Work>
    </rdf:RDF>
  </metadata>
  <defs
     id="defs9795" />
  <sodipodi:namedview
     pagecolor="#ffffff"
     bordercolor="#666666"
     borderopacity="1"
     objecttolerance="10"
     gridtolerance="10"
     guidetolerance="10"
     inkscape:pageopacity="0"
     inkscape:pageshadow="2"
     inkscape:window-width="2256"
     inkscape:window-height="1410"
     id="namedview9793"
     showgrid="false"
     inkscape:zoom="6.7237319"
     inkscape:cx="62.679616"
     inkscape:cy="156.02181"
     inkscape:window-x="-11"
     inkscape:window-y="-11"
     inkscape:window-maximized="1"
     inkscape:current-layer="svg9791" />
  <path
     d="m 207.71,177.484 -43.135,-2.255 v 29.802 c 36.901,0 7.056,0 20.528,0 l -23.283,50.542 c -3.42,7.546 -0.076,16.434 7.469,19.855 7.572,3.429 16.446,0.053 19.855,-7.469 l 31.417,-69.305 c 2.045,-4.512 1.73,-9.742 -0.839,-13.977 -2.571,-4.233 -7.066,-6.926 -12.012,-7.193 z"
     id="path9775"
     inkscape:connector-curvature="0" />
  <path
     d="m 100.47,175.134 v 7.849 L 44.717,287.502 c -3.9,7.31 -1.135,16.395 6.175,20.294 7.3,3.897 16.392,1.141 20.294,-6.175 l 49.389,-92.59 c 0,-14.08 0,-19.876 0,-33.802 -19.908,0 -18.671,0.035 -20.105,-0.095 z"
     id="path9777"
     inkscape:connector-curvature="0" />
  <path
     d="m 60.426,104.282 40.044,5.419 v 21.622 c 1.515,-0.138 -3.295,-0.095 66.21,-0.095 V 111.07 l 48.067,-38.78 c 1.189,-0.959 2.192,-2.128 2.96,-3.449 l 24.342,-41.898 c 3.468,-5.969 1.44,-13.619 -4.529,-17.088 -5.968,-3.467 -13.619,-1.44 -17.088,4.529 l -23.181,39.899 -40.295,32.51 H 117.524 C 117.445,86.781 117.37,86.76 117.291,86.75 L 72.568,80.697 63.015,34.052 C 61.629,27.287 55.021,22.928 48.261,24.314 41.498,25.701 37.139,32.307 38.524,39.07 l 11.333,55.334 c 1.066,5.205 5.305,9.167 10.569,9.878 z"
     id="path9779"
     inkscape:connector-curvature="0"
     sodipodi:nodetypes="cccccccccccccccccccc"
     style="fill:#000000;fill-opacity:1;stroke-width:0;stroke-miterlimit:4;stroke-dasharray:none" />
  <circle
     cx="133.575"
     cy="51.075001"
     r="25.907"
     id="circle9781" />
  <path
     style="fill:#000000;stroke:#000000;stroke-width:0;stroke-linecap:butt;stroke-linejoin:miter;stroke-opacity:1;fill-opacity:1;stroke-miterlimit:4;stroke-dasharray:none"
     d="m 100.47,131.323 v 43.811 l 20.105,0.095 v 33.802 l 44,-4 v -29.802 l 2.105,-44.001"
     id="path10355"
     inkscape:connector-curvature="0"
     sodipodi:nodetypes="ccccccc" />
  <rect
     style="opacity:1;fill:#000000;fill-opacity:1;stroke:#000000;stroke-width:0;stroke-linecap:round;stroke-linejoin:round;stroke-miterlimit:4;stroke-dasharray:none;stroke-opacity:1;paint-order:markers fill stroke"
     id="rect10357"
     width="58.895863"
     height="83.584534"
     x="102.32413"
     y="120.02263"
     ry="0.16509824" />
  <rect
     style="opacity:1;fill:#000000;fill-opacity:1;stroke:#000000;stroke-width:0;stroke-linecap:round;stroke-linejoin:round;stroke-miterlimit:4;stroke-dasharray:none;stroke-opacity:1;paint-order:markers fill stroke"
     id="rect10359"
     width="23.052673"
     height="27.365755"
     x="149.02438"
     y="175.79523"
     ry="0.165098" />
</svg>
