<?xml version="1.0" encoding="UTF-8" standalone="no"?>
<!-- Generator: Adobe Illustrator 19.0.0, SVG Export Plug-In . SVG Version: 6.00 Build 0)  -->

<svg
   xmlns:dc="http://purl.org/dc/elements/1.1/"
   xmlns:cc="http://creativecommons.org/ns#"
   xmlns:rdf="http://www.w3.org/1999/02/22-rdf-syntax-ns#"
   xmlns:svg="http://www.w3.org/2000/svg"
   xmlns="http://www.w3.org/2000/svg"
   xmlns:sodipodi="http://sodipodi.sourceforge.net/DTD/sodipodi-0.dtd"
   xmlns:inkscape="http://www.inkscape.org/namespaces/inkscape"
   version="1.1"
   id="Capa_1"
   x="0px"
   y="0px"
   viewBox="0 0 512 512"
   style="enable-background:new 0 0 512 512;"
   xml:space="preserve"
   sodipodi:docname="tree.svg"
   inkscape:version="0.92.3 (2405546, 2018-03-11)"><metadata
   id="metadata1172"><rdf:RDF><cc:Work
       rdf:about=""><dc:format>image/svg+xml</dc:format><dc:type
         rdf:resource="http://purl.org/dc/dcmitype/StillImage" /></cc:Work></rdf:RDF></metadata><defs
   id="defs1170" /><sodipodi:namedview
   pagecolor="#ffffff"
   bordercolor="#666666"
   borderopacity="1"
   objecttolerance="10"
   gridtolerance="10"
   guidetolerance="10"
   inkscape:pageopacity="0"
   inkscape:pageshadow="2"
   inkscape:window-width="3008"
   inkscape:window-height="1880"
   id="namedview1168"
   showgrid="false"
   inkscape:zoom="11.415405"
   inkscape:cx="265.06486"
   inkscape:cy="33.837543"
   inkscape:window-x="-13"
   inkscape:window-y="-13"
   inkscape:window-maximized="1"
   inkscape:current-layer="Capa_1" />
<path
   style="fill:#AFD755;"
   d="M409.259,188.286L409.259,188.286c10.919-15.295,17.409-33.966,17.409-54.19  c0-51.617-41.843-93.46-93.46-93.46c-0.765,0-1.506,0.096-2.266,0.115C314.999,16.241,287.418,0,256.001,0  c-36.446,0-67.742,21.843-81.661,53.125c-55.855,14.591-97.133,65.242-97.133,125.669c0,33.224,12.565,63.44,33.068,86.426  c-0.354,3.654-0.561,7.351-0.561,11.098c0,62.838,50.94,113.778,113.778,113.778c6.849,0,34.125-0.611,40.635-1.779l2.754-28.16  c16.099,8.725,34.537,13.685,54.134,13.685c62.838,0,113.778-50.94,113.778-113.778  C434.795,232.839,425.207,207.869,409.259,188.286z"
   id="path1127" />
<path
   style="fill:#96BE4B;"
   d="M264.128,347.329c-13.04,3.364-27.479,3.251-42.911-4.038c-20.9-9.871-36.045-29.934-38.096-52.956  c-0.806-9.043,0.268-17.732,2.845-25.748c1.013-3.152-0.291-6.5-2.851-8.6c-19.979-16.387-32.765-41.211-32.765-69.067  c0-36.149,21.496-67.201,52.372-81.278c3.222-1.469,5.3-4.672,4.943-8.195c-0.268-2.649-0.426-5.33-0.426-8.051  c0-42.338,29.465-77.718,68.985-86.964C269.714,0.92,262.974,0,256.001,0c-36.446,0-67.742,21.843-81.661,53.125  c-55.855,14.591-97.133,65.242-97.133,125.669c0,33.224,12.565,63.44,33.068,86.426c-0.354,3.654-0.561,7.351-0.561,11.098  c0,62.838,50.94,113.778,113.778,113.778c6.849,0,34.125-0.611,40.635-1.779v-24.835v-16.153H264.128z"
   id="path1129" />
<path
   style="fill:#AF6E5A;"
   d="M247.874,349.46c-0.261,0-0.512-0.036-0.772-0.039l-7.355,154.452h48.762l-7.197-151.124  c-0.258-5.414-5.677-9.317-10.75-7.41C263.502,347.993,255.865,349.46,247.874,349.46z"
   id="path1131" />
<path
   style="fill:#965A50;"
   d="M281.312,352.749c-0.258-5.414-5.677-9.317-10.75-7.41c-7.06,2.654-14.697,4.122-22.688,4.122  c-0.261,0-0.512-0.036-0.772-0.039l-7.355,154.452h24.381V371.572c0-3.499,2.239-6.604,5.557-7.71l11.967-3.989L281.312,352.749z"
   id="path1133" />

<g
   id="g1137">
</g>
<g
   id="g1139">
</g>
<g
   id="g1141">
</g>
<g
   id="g1143">
</g>
<g
   id="g1145">
</g>
<g
   id="g1147">
</g>
<g
   id="g1149">
</g>
<g
   id="g1151">
</g>
<g
   id="g1153">
</g>
<g
   id="g1155">
</g>
<g
   id="g1157">
</g>
<g
   id="g1159">
</g>
<g
   id="g1161">
</g>
<g
   id="g1163">
</g>
<g
   id="g1165">
</g>
<path
   style="fill:rgba(0,0,0,0.21691176);stroke-linecap:butt;stroke-linejoin:miter;"
   d="m 288.509,503.873 c -39.3513,22.41122 -51.25291,11.36247 -48.762,0.001 z"
   id="path4881"
   inkscape:connector-curvature="0"
   sodipodi:nodetypes="ccc" /></svg>